<?xml version="1.0" encoding="iso-8859-1"?>
<!-- Generator: Adobe Illustrator 18.0.0, SVG Export Plug-In . SVG Version: 6.00 Build 0)  -->
<!DOCTYPE svg PUBLIC "-//W3C//DTD SVG 1.1//EN" "http://www.w3.org/Graphics/SVG/1.1/DTD/svg11.dtd">
<svg xmlns="http://www.w3.org/2000/svg" xmlns:xlink="http://www.w3.org/1999/xlink" version="1.1" id="Capa_1" x="0px" y="0px" viewBox="0 0 477.216 477.216" style="enable-background:new 0 0 477.216 477.216;" xml:space="preserve" width="512px" height="512px">
<g>
	<path d="M326.747,418.407h-68.139V257.794c0.318-0.299,0.633-0.602,0.94-0.917l104.805-107.518H112.864l104.803,107.518   c0.308,0.315,0.623,0.618,0.941,0.917v160.613h-68.139c-11.046,0-20,8.954-20,20c0,11.046,8.954,20,20,20h176.278   c11.046,0,20-8.954,20-20C346.747,427.361,337.793,418.407,326.747,418.407z" fill="#FFFFFF"/>
	<path d="M461.607,18.81L15.609,18.809c-16.5,0-20.577,9.667-9.059,21.483l77.071,79.067h309.976l77.071-79.066   C482.184,28.477,478.107,18.81,461.607,18.81z" fill="#FFFFFF"/>
</g>
<g>
</g>
<g>
</g>
<g>
</g>
<g>
</g>
<g>
</g>
<g>
</g>
<g>
</g>
<g>
</g>
<g>
</g>
<g>
</g>
<g>
</g>
<g>
</g>
<g>
</g>
<g>
</g>
<g>
</g>
</svg>
